<?xml version="1.0" encoding="utf-8"?>
<!-- Generator: Adobe Illustrator 27.0.0, SVG Export Plug-In . SVG Version: 6.00 Build 0)  -->
<svg version="1.1" id="Layer_1" xmlns="http://www.w3.org/2000/svg" xmlns:xlink="http://www.w3.org/1999/xlink" x="0px" y="0px"
	 viewBox="0 0 576 144" style="enable-background:new 0 0 576 144;" xml:space="preserve">
<style type="text/css">
	.st0{fill:#FFFFFF;}
	.st1{fill:url(#SVGID_1_);}
	.st2{fill:url(#SVGID_00000070819061605105943510000015712797291485066647_);}
	.st3{fill:url(#SVGID_00000014626363732733313540000001717322095809686422_);}
	.st4{fill:url(#SVGID_00000045579522157624994760000011370555039514186407_);}
	.st5{fill:url(#SVGID_00000167363232029913737520000005084342724856440758_);}
	.st6{fill:url(#SVGID_00000018934020897110655940000005892152261910724520_);}
	.st7{fill:url(#SVGID_00000024707272385500393750000017365176022345596578_);}
	.st8{fill:url(#SVGID_00000129922188938885337310000011589914210219396287_);}
	.st9{fill:url(#SVGID_00000169557777497058813710000006352465471994579635_);}
	.st10{fill:url(#SVGID_00000062885770155314096690000006963319391017050778_);}
	.st11{fill:url(#SVGID_00000147217176505996371580000016655231769604600971_);}
	.st12{fill:url(#SVGID_00000170980502968215556360000009825838290472538513_);}
	.st13{fill:url(#SVGID_00000147923273488637763740000017509801526671451062_);}
	.st14{fill:url(#SVGID_00000094614949825035010510000004059818984963295393_);}
	.st15{fill:url(#SVGID_00000106865311518561412550000005320573149348200078_);}
	.st16{fill:url(#SVGID_00000126324284151634480030000017662983500613372314_);}
	.st17{fill:url(#SVGID_00000045588060958371142320000016626463743739138695_);}
	.st18{fill:url(#SVGID_00000126290375442256333810000017657493857788860854_);}
	.st19{fill:url(#SVGID_00000051371309877714040240000004044443835720063371_);}
	.st20{fill:url(#SVGID_00000123403405310978932950000004818052250877677483_);}
	.st21{fill:url(#SVGID_00000166678067013311862170000002475283358000514206_);}
</style>
<g>
	<g>
		<g>
			<path class="st0" d="M244.1,47.7c1.9,1,3.3,2.4,4.4,4.3s1.6,4.2,1.6,7v17.7H244V60c0-2.7-0.7-4.7-2-6.2s-3.1-2.2-5.5-2.2
				s-4.1,0.7-5.5,2.2c-1.4,1.4-2,3.5-2,6.2v16.7h-6.1V60c0-2.7-0.7-4.7-2-6.2s-3.1-2.2-5.5-2.2s-4.1,0.7-5.5,2.2
				c-1.4,1.4-2,3.5-2,6.2v16.7h-6.2V46.8h6.2v3.4c1-1.2,2.3-2.2,3.8-2.9c1.6-0.7,3.2-1,5-1c2.4,0,4.5,0.5,6.4,1.5
				c1.9,1,3.3,2.5,4.3,4.4c0.9-1.8,2.3-3.2,4.2-4.3s4-1.6,6.2-1.6C240.1,46.3,242.2,46.8,244.1,47.7L244.1,47.7z"/>
			<path class="st0" d="M262,75.2c-2.3-1.3-4-3.1-5.4-5.4c-1.3-2.3-1.9-5-1.9-8.1s0.7-5.7,2-8.1c1.3-2.3,3.1-4.2,5.5-5.4
				s4.9-1.9,7.7-1.9s5.4,0.6,7.7,1.9s4.1,3.1,5.5,5.4s2,5,2,8.1c0,3-0.7,5.7-2,8.1s-3.2,4.2-5.6,5.5s-5,1.9-7.8,1.9
				S264.3,76.5,262,75.2L262,75.2z M274.1,70.7c1.4-0.8,2.5-1.9,3.4-3.4s1.3-3.4,1.3-5.5s-0.4-4-1.2-5.5s-1.9-2.6-3.3-3.4
				s-2.9-1.1-4.4-1.1s-3,0.4-4.4,1.1s-2.4,1.9-3.2,3.4c-0.8,1.5-1.2,3.3-1.2,5.5c0,3.2,0.8,5.7,2.5,7.5c1.6,1.8,3.7,2.6,6.2,2.6
				C271.3,71.8,272.8,71.4,274.1,70.7L274.1,70.7z"/>
			<path class="st0" d="M332.1,47.7c1.9,1,3.3,2.4,4.4,4.3c1.1,1.9,1.6,4.2,1.6,7v17.7h-6.1V60c0-2.7-0.7-4.7-2-6.2
				s-3.1-2.2-5.5-2.2s-4.1,0.7-5.5,2.2c-1.4,1.4-2,3.5-2,6.2v16.7h-6.1V60c0-2.7-0.7-4.7-2-6.2s-3.1-2.2-5.5-2.2s-4.1,0.7-5.5,2.2
				c-1.4,1.4-2,3.5-2,6.2v16.7h-6.2V46.8h6.2v3.4c1-1.2,2.3-2.2,3.8-2.9c1.5-0.7,3.2-1,5-1c2.4,0,4.5,0.5,6.4,1.5
				c1.9,1,3.3,2.5,4.3,4.4c0.9-1.8,2.3-3.2,4.2-4.3s4-1.6,6.2-1.6C328.1,46.3,330.2,46.8,332.1,47.7L332.1,47.7z"/>
			<path class="st0" d="M371.6,64h-22.8c0.2,2.4,1.1,4.3,2.6,5.8c1.6,1.4,3.5,2.2,5.8,2.2c3.3,0,5.7-1.4,7-4.2h6.6
				c-0.9,2.8-2.5,5-4.9,6.8c-2.4,1.8-5.3,2.6-8.8,2.6c-2.9,0-5.4-0.6-7.6-1.9c-2.2-1.3-4-3.1-5.3-5.4c-1.3-2.3-1.9-5-1.9-8.1
				s0.6-5.8,1.9-8.1s3-4.1,5.2-5.4c2.2-1.3,4.8-1.9,7.8-1.9s5.3,0.6,7.5,1.8s3.9,3,5.1,5.2s1.8,4.8,1.8,7.7
				C371.8,62.1,371.8,63.1,371.6,64L371.6,64z M365.4,59c0-2.3-0.9-4.1-2.4-5.5c-1.6-1.4-3.5-2.1-5.9-2.1c-2.1,0-4,0.7-5.5,2
				c-1.5,1.4-2.4,3.2-2.7,5.5H365.4z"/>
			<path class="st0" d="M397.9,47.7c1.9,1,3.3,2.4,4.4,4.3c1,1.9,1.6,4.2,1.6,7v17.7h-6.1V60c0-2.7-0.7-4.7-2-6.2s-3.1-2.2-5.5-2.2
				s-4.1,0.7-5.5,2.2c-1.4,1.4-2,3.5-2,6.2v16.7h-6.2V46.8h6.2v3.4c1-1.2,2.3-2.2,3.9-2.9c1.6-0.7,3.2-1,5-1
				C393.9,46.3,396,46.8,397.9,47.7L397.9,47.7z"/>
			<path class="st0" d="M417.1,51.8v16.6c0,1.1,0.3,1.9,0.8,2.4s1.4,0.7,2.7,0.7h3.8v5.2h-4.9c-2.8,0-4.9-0.7-6.4-2
				c-1.5-1.3-2.2-3.4-2.2-6.3V51.8h-3.5v-5h3.5v-7.4h6.2v7.4h7.2v5C424.3,51.8,417.1,51.8,417.1,51.8z"/>
			<path class="st0" d="M455.9,46.8v29.9h-6.2v-3.5c-1,1.2-2.2,2.2-3.8,2.9c-1.6,0.7-3.2,1.1-5,1.1c-2.3,0-4.4-0.5-6.3-1.5
				s-3.3-2.4-4.4-4.3s-1.6-4.2-1.6-6.9V46.8h6.1v16.7c0,2.7,0.7,4.7,2,6.2s3.1,2.2,5.5,2.2s4.1-0.7,5.5-2.2c1.4-1.4,2-3.5,2-6.2
				V46.8L455.9,46.8L455.9,46.8z"/>
			<path class="st0" d="M503.1,47.7c1.9,1,3.3,2.4,4.4,4.3c1.1,1.9,1.6,4.2,1.6,7v17.7h-6.1V60c0-2.7-0.7-4.7-2-6.2
				s-3.1-2.2-5.5-2.2s-4.1,0.7-5.5,2.2c-1.4,1.4-2,3.5-2,6.2v16.7h-6.1V60c0-2.7-0.7-4.7-2-6.2s-3.1-2.2-5.5-2.2s-4.1,0.7-5.5,2.2
				c-1.4,1.4-2,3.5-2,6.2v16.7h-6.2V46.8h6.2v3.4c1-1.2,2.3-2.2,3.8-2.9c1.5-0.7,3.2-1,5-1c2.4,0,4.5,0.5,6.4,1.5
				c1.9,1,3.3,2.5,4.3,4.4c0.9-1.8,2.3-3.2,4.2-4.3s4-1.6,6.2-1.6C499.1,46.3,501.2,46.8,503.1,47.7L503.1,47.7z"/>
		</g>
		<g>
			<path class="st0" d="M212.2,94.7c0.5,0.7,0.8,1.5,0.8,2.3c0,0.8-0.2,1.5-0.6,2.1s-0.9,1.1-1.7,1.4c-0.7,0.3-1.6,0.5-2.6,0.5h-6.4
				V86.2h6.1c1,0,1.9,0.2,2.6,0.5c0.7,0.3,1.3,0.8,1.6,1.4s0.6,1.2,0.6,2c0,0.9-0.2,1.6-0.7,2.2s-1.1,1-1.8,1.2
				C211,93.6,211.7,94,212.2,94.7L212.2,94.7z M204.7,92.3h2.7c0.7,0,1.2-0.2,1.6-0.5s0.6-0.8,0.6-1.4s-0.2-1.1-0.6-1.4
				c-0.4-0.3-0.9-0.5-1.6-0.5h-2.7V92.3z M209.4,98.1c0.4-0.3,0.6-0.8,0.6-1.4s-0.2-1.1-0.6-1.5s-1-0.5-1.7-0.5h-2.9v4h3
				C208.4,98.6,209,98.4,209.4,98.1L209.4,98.1z"/>
			<path class="st0" d="M220.5,86.2V101h-3V86.2H220.5z"/>
			<path class="st0" d="M228.5,100.2c-1.2-0.7-2.1-1.6-2.8-2.7c-0.7-1.2-1-2.5-1-3.9s0.3-2.8,1-3.9c0.7-1.2,1.6-2.1,2.8-2.7
				s2.4-1,3.8-1s2.7,0.3,3.8,1c1.1,0.7,2.1,1.6,2.7,2.7c0.7,1.2,1,2.5,1,3.9s-0.3,2.8-1,3.9c-0.7,1.2-1.6,2.1-2.7,2.7s-2.4,1-3.8,1
				S229.7,100.8,228.5,100.2z M234.7,97.9c0.7-0.4,1.2-1,1.6-1.7c0.4-0.8,0.6-1.6,0.6-2.6s-0.2-1.9-0.6-2.6s-0.9-1.3-1.6-1.7
				s-1.5-0.6-2.4-0.6s-1.7,0.2-2.4,0.6s-1.2,1-1.6,1.7s-0.6,1.6-0.6,2.6s0.2,1.9,0.6,2.6c0.4,0.8,0.9,1.3,1.6,1.7
				c0.7,0.4,1.5,0.6,2.4,0.6S234,98.3,234.7,97.9z"/>
			<path class="st0" d="M254.3,86.2v2.4h-3.9V101h-3V88.6h-3.9v-2.4H254.3L254.3,86.2z"/>
			<path class="st0" d="M261.5,88.6v3.7h5v2.4h-5v3.9h5.6v2.4h-8.6V86.1h8.6v2.4L261.5,88.6L261.5,88.6z"/>
			<path class="st0" d="M272.2,89.6c0.7-1.2,1.5-2.1,2.7-2.7s2.4-1,3.8-1c1.6,0,3.1,0.4,4.3,1.3s2.1,2,2.6,3.5h-3.4
				c-0.3-0.7-0.8-1.2-1.4-1.6c-0.6-0.3-1.3-0.5-2.1-0.5c-0.9,0-1.6,0.2-2.3,0.6c-0.7,0.4-1.2,1-1.6,1.7c-0.4,0.7-0.6,1.6-0.6,2.6
				s0.2,1.8,0.6,2.6c0.4,0.7,0.9,1.3,1.6,1.7s1.4,0.6,2.3,0.6c0.8,0,1.5-0.2,2.1-0.5c0.6-0.4,1.1-0.9,1.4-1.6h3.4
				c-0.5,1.5-1.4,2.7-2.6,3.5c-1.2,0.8-2.7,1.3-4.4,1.3c-1.4,0-2.7-0.3-3.8-1s-2-1.5-2.7-2.7s-1-2.4-1-3.9S271.5,90.8,272.2,89.6
				L272.2,89.6z"/>
			<path class="st0" d="M302.5,86.2V101h-3v-6.3h-6.3v6.3h-3V86.2h3v6.1h6.3v-6.1H302.5z"/>
			<path class="st0" d="M320.2,101h-3l-6.7-10.2V101h-3V86.1h3l6.7,10.2V86.1h3V101z"/>
			<path class="st0" d="M328.3,100.2c-1.2-0.7-2.1-1.6-2.8-2.7c-0.7-1.2-1-2.5-1-3.9s0.3-2.8,1-3.9c0.7-1.2,1.6-2.1,2.8-2.7
				s2.4-1,3.8-1s2.7,0.3,3.8,1s2.1,1.6,2.7,2.7c0.7,1.2,1,2.5,1,3.9s-0.3,2.8-1,3.9c-0.7,1.2-1.6,2.1-2.7,2.7s-2.4,1-3.8,1
				S329.5,100.8,328.3,100.2L328.3,100.2z M334.5,97.9c0.7-0.4,1.2-1,1.6-1.7s0.6-1.6,0.6-2.6s-0.2-1.9-0.6-2.6s-0.9-1.3-1.6-1.7
				s-1.5-0.6-2.4-0.6s-1.7,0.2-2.4,0.6s-1.2,1-1.6,1.7s-0.6,1.6-0.6,2.6s0.2,1.9,0.6,2.6c0.4,0.8,0.9,1.3,1.6,1.7
				c0.7,0.4,1.5,0.6,2.4,0.6S333.8,98.3,334.5,97.9z"/>
			<path class="st0" d="M346.9,98.6h4.9v2.4H344V86.2h3V98.6z"/>
			<path class="st0" d="M358.8,100.2c-1.2-0.7-2.1-1.6-2.8-2.7c-0.7-1.2-1-2.5-1-3.9s0.3-2.8,1-3.9c0.7-1.2,1.6-2.1,2.8-2.7
				s2.4-1,3.8-1s2.7,0.3,3.8,1s2.1,1.6,2.7,2.7c0.7,1.2,1,2.5,1,3.9s-0.3,2.8-1,3.9c-0.7,1.2-1.6,2.1-2.7,2.7s-2.4,1-3.8,1
				S360,100.8,358.8,100.2L358.8,100.2z M365,97.9c0.7-0.4,1.2-1,1.6-1.7s0.6-1.6,0.6-2.6s-0.2-1.9-0.6-2.6s-0.9-1.3-1.6-1.7
				s-1.5-0.6-2.4-0.6s-1.7,0.2-2.4,0.6s-1.2,1-1.6,1.7s-0.6,1.6-0.6,2.6s0.2,1.9,0.6,2.6c0.4,0.8,0.9,1.3,1.6,1.7
				c0.7,0.4,1.5,0.6,2.4,0.6S364.3,98.3,365,97.9z"/>
			<path class="st0" d="M384.8,90.6c-0.3-0.6-0.8-1.1-1.4-1.4c-0.6-0.3-1.3-0.5-2.1-0.5c-0.9,0-1.6,0.2-2.3,0.6s-1.2,1-1.6,1.7
				s-0.6,1.6-0.6,2.6s0.2,1.9,0.6,2.6c0.4,0.7,0.9,1.3,1.6,1.7s1.5,0.6,2.4,0.6c1.1,0,2-0.3,2.8-0.9s1.2-1.4,1.4-2.5h-5.1v-2.3h8
				v2.6c-0.2,1-0.6,2-1.3,2.9c-0.6,0.9-1.5,1.6-2.5,2.1c-1,0.5-2.2,0.8-3.4,0.8c-1.4,0-2.7-0.3-3.9-1s-2-1.5-2.7-2.7s-1-2.4-1-3.9
				s0.3-2.8,1-3.9c0.7-1.2,1.6-2.1,2.7-2.7s2.4-1,3.8-1c1.7,0,3.1,0.4,4.3,1.2c1.2,0.8,2.1,2,2.5,3.4H384.8L384.8,90.6z"/>
			<path class="st0" d="M395.9,86.2V101h-3V86.2H395.9z"/>
			<path class="st0" d="M403.9,88.6v3.7h5v2.4h-5v3.9h5.6v2.4h-8.6V86.1h8.6v2.4L403.9,88.6L403.9,88.6z"/>
			<path class="st0" d="M416.6,100.6c-0.8-0.3-1.5-0.9-2-1.5c-0.5-0.7-0.7-1.4-0.7-2.4h3.2c0,0.6,0.3,1.1,0.6,1.4
				c0.4,0.3,0.9,0.5,1.6,0.5s1.2-0.2,1.6-0.5c0.4-0.3,0.6-0.8,0.6-1.3c0-0.4-0.1-0.8-0.4-1.1s-0.6-0.5-1-0.7c-0.4-0.2-1-0.3-1.7-0.5
				c-1-0.3-1.7-0.6-2.3-0.8s-1.1-0.7-1.5-1.2c-0.4-0.6-0.6-1.3-0.6-2.2c0-0.9,0.2-1.6,0.7-2.3c0.4-0.7,1-1.2,1.8-1.5
				s1.7-0.5,2.7-0.5c1.5,0,2.8,0.4,3.7,1.1s1.5,1.8,1.6,3.1h-3.3c0-0.5-0.2-0.9-0.6-1.3c-0.4-0.3-0.9-0.5-1.6-0.5
				c-0.6,0-1,0.2-1.4,0.4c-0.4,0.3-0.5,0.7-0.5,1.3c0,0.4,0.1,0.7,0.4,1c0.3,0.3,0.6,0.5,1,0.6c0.4,0.2,0.9,0.3,1.6,0.6
				c1,0.3,1.7,0.6,2.4,0.8s1.1,0.7,1.6,1.3s0.7,1.3,0.7,2.2c0,0.8-0.2,1.5-0.6,2.2c-0.4,0.7-1,1.2-1.8,1.6c-0.8,0.4-1.7,0.6-2.8,0.6
				C418.3,101.2,417.4,101,416.6,100.6L416.6,100.6z"/>
		</g>
	</g>
	<g>
		<path class="st0" d="M179,117c-0.2,0-0.3-0.1-0.3-0.3V27.3c0-0.2,0.1-0.3,0.3-0.3s0.3,0.1,0.3,0.3v89.4
			C179.3,116.9,179.1,117,179,117z"/>
		<g>
			<g>
				
					<linearGradient id="SVGID_1_" gradientUnits="userSpaceOnUse" x1="68.8656" y1="45.01" x2="68.8656" y2="106.64" gradientTransform="matrix(1 0 0 -1 0 146)">
					<stop  offset="0" style="stop-color:#FFFFFF;stop-opacity:0"/>
					<stop  offset="0.83" style="stop-color:#FFFFFF"/>
				</linearGradient>
				<path class="st1" d="M69.3,39.8c0-0.2-0.2-0.4-0.4-0.4s-0.4,0.2-0.4,0.4l-1.5,60.8c0,0.1,0,0.2,0.1,0.3c0.1,0.1,0.2,0.1,0.3,0.1
					h3c0.1,0,0.2-0.1,0.3-0.1c0.1-0.1,0.1-0.2,0.1-0.3C70.8,100.6,69.3,39.8,69.3,39.8z"/>
				
					<linearGradient id="SVGID_00000137847211061873096040000009999385970920084612_" gradientUnits="userSpaceOnUse" x1="77.3256" y1="45.01" x2="77.3256" y2="106.64" gradientTransform="matrix(1 0 0 -1 0 146)">
					<stop  offset="0" style="stop-color:#FFFFFF;stop-opacity:0"/>
					<stop  offset="0.83" style="stop-color:#FFFFFF"/>
				</linearGradient>
				<path style="fill:url(#SVGID_00000137847211061873096040000009999385970920084612_);" d="M77.8,39.8c0-0.2-0.2-0.4-0.4-0.4
					s-0.4,0.2-0.4,0.4l-1.5,60.8c0,0.1,0,0.2,0.1,0.3c0.1,0.1,0.2,0.1,0.3,0.1h3c0.1,0,0.2-0.1,0.3-0.1c0.1-0.1,0.1-0.2,0.1-0.3
					C79.2,100.6,77.8,39.8,77.8,39.8z"/>
				
					<linearGradient id="SVGID_00000124877601545311189690000009630047273452392356_" gradientUnits="userSpaceOnUse" x1="73.1244" y1="106.64" x2="73.1244" y2="45.01" gradientTransform="matrix(1 0 0 -1 0 146)">
					<stop  offset="0" style="stop-color:#FFFFFF;stop-opacity:0"/>
					<stop  offset="0.83" style="stop-color:#FFFFFF"/>
				</linearGradient>
				<path style="fill:url(#SVGID_00000124877601545311189690000009630047273452392356_);" d="M74.9,39.5c-0.1-0.1-0.2-0.1-0.3-0.1
					h-3c-0.1,0-0.2,0-0.3,0.1c-0.1,0.1-0.1,0.2-0.1,0.3l1.5,60.8c0,0.2,0.2,0.4,0.4,0.4s0.4-0.2,0.4-0.4L75,39.8
					C75,39.7,75,39.6,74.9,39.5z"/>
				
					<linearGradient id="SVGID_00000126308271050640336610000003717197814975101345_" gradientUnits="userSpaceOnUse" x1="85.7956" y1="45.01" x2="85.7956" y2="106.64" gradientTransform="matrix(1 0 0 -1 0 146)">
					<stop  offset="0" style="stop-color:#FFFFFF;stop-opacity:0"/>
					<stop  offset="0.83" style="stop-color:#FFFFFF"/>
				</linearGradient>
				<path style="fill:url(#SVGID_00000126308271050640336610000003717197814975101345_);" d="M86.2,39.8c0-0.2-0.2-0.4-0.4-0.4
					s-0.4,0.2-0.4,0.4l-1.5,60.8c0,0.1,0,0.2,0.1,0.3c0.1,0.1,0.2,0.1,0.3,0.1h3c0.1,0,0.2-0.1,0.3-0.1c0.1-0.1,0.1-0.2,0.1-0.3
					C87.7,100.6,86.2,39.8,86.2,39.8z"/>
				
					<linearGradient id="SVGID_00000154424728147694771830000011515788719941916337_" gradientUnits="userSpaceOnUse" x1="111.375" y1="51.48" x2="111.375" y2="83.37" gradientTransform="matrix(1 0 0 -1 0 146)">
					<stop  offset="0" style="stop-color:#FFFFFF;stop-opacity:0"/>
					<stop  offset="0.83" style="stop-color:#FFFFFF"/>
				</linearGradient>
				<path style="fill:url(#SVGID_00000154424728147694771830000011515788719941916337_);" d="M111.8,63c0-0.2-0.2-0.4-0.4-0.4
					S111,62.8,111,63l-1.5,31c0,0.1,0,0.2,0.1,0.3c0.1,0.1,0.2,0.1,0.3,0.1h3c0.1,0,0.2-0.1,0.3-0.1c0.1-0.1,0.1-0.2,0.1-0.3
					L111.8,63z"/>
				
					<linearGradient id="SVGID_00000017512331213111679980000012414759057894244771_" gradientUnits="userSpaceOnUse" x1="81.5844" y1="106.64" x2="81.5844" y2="45.01" gradientTransform="matrix(1 0 0 -1 0 146)">
					<stop  offset="0" style="stop-color:#FFFFFF;stop-opacity:0"/>
					<stop  offset="0.83" style="stop-color:#FFFFFF"/>
				</linearGradient>
				<path style="fill:url(#SVGID_00000017512331213111679980000012414759057894244771_);" d="M83.4,39.5c-0.1-0.1-0.2-0.1-0.3-0.1
					h-3c-0.1,0-0.2,0-0.3,0.1c-0.1,0.1-0.1,0.2-0.1,0.3l1.5,60.8c0,0.2,0.2,0.4,0.4,0.4s0.4-0.2,0.4-0.4l1.5-60.8
					C83.5,39.7,83.5,39.6,83.4,39.5z"/>
				
					<linearGradient id="SVGID_00000113342906921358613520000005328707624405333414_" gradientUnits="userSpaceOnUse" x1="90.0547" y1="106.6414" x2="90.0547" y2="45.01" gradientTransform="matrix(1 0 0 -1 0 146)">
					<stop  offset="0" style="stop-color:#FFFFFF;stop-opacity:0"/>
					<stop  offset="0.83" style="stop-color:#FFFFFF"/>
				</linearGradient>
				<path style="fill:url(#SVGID_00000113342906921358613520000005328707624405333414_);" d="M91.9,43.6l-3-4.1
					c-0.1-0.2-0.3-0.2-0.5-0.2s-0.3,0.2-0.3,0.4l1.5,60.8c0,0.2,0.2,0.4,0.4,0.4s0.4-0.2,0.4-0.4L92,43.9
					C92,43.8,91.9,43.7,91.9,43.6z"/>
				
					<linearGradient id="SVGID_00000040563271794595310650000017543175126013374101_" gradientUnits="userSpaceOnUse" x1="106.9847" y1="89.5473" x2="106.9847" y2="53.57" gradientTransform="matrix(1 0 0 -1 0 146)">
					<stop  offset="0" style="stop-color:#FFFFFF;stop-opacity:0"/>
					<stop  offset="0.83" style="stop-color:#FFFFFF"/>
				</linearGradient>
				<path style="fill:url(#SVGID_00000040563271794595310650000017543175126013374101_);" d="M108.8,60.7l-3-4.1
					c-0.1-0.2-0.3-0.2-0.5-0.2c-0.2,0.1-0.3,0.2-0.3,0.4l1.5,35.1c0,0.2,0.2,0.4,0.4,0.4l0,0c0.2,0,0.4-0.2,0.4-0.4l1.5-31
					C108.9,60.9,108.9,60.8,108.8,60.7z"/>
				
					<linearGradient id="SVGID_00000141438613559117163330000012985789507289067946_" gradientUnits="userSpaceOnUse" x1="98.5247" y1="98.0973" x2="98.5247" y2="62.13" gradientTransform="matrix(1 0 0 -1 0 146)">
					<stop  offset="0" style="stop-color:#FFFFFF;stop-opacity:0"/>
					<stop  offset="0.83" style="stop-color:#FFFFFF"/>
				</linearGradient>
				<path style="fill:url(#SVGID_00000141438613559117163330000012985789507289067946_);" d="M100.4,52.2l-3-4.1
					c-0.1-0.2-0.3-0.2-0.5-0.2c-0.2,0.1-0.3,0.2-0.3,0.4l1.5,35.1c0,0.2,0.2,0.4,0.4,0.4l0,0c0.2,0,0.4-0.2,0.4-0.4l1.5-31
					C100.4,52.3,100.4,52.2,100.4,52.2z"/>
				
					<linearGradient id="SVGID_00000180327351026217005790000017196823073876105603_" gradientUnits="userSpaceOnUse" x1="94.4453" y1="64.49" x2="94.4453" y2="100.47" gradientTransform="matrix(1 0 0 -1 0 146)">
					<stop  offset="0" style="stop-color:#FFFFFF;stop-opacity:0"/>
					<stop  offset="0.83" style="stop-color:#FFFFFF"/>
				</linearGradient>
				<path style="fill:url(#SVGID_00000180327351026217005790000017196823073876105603_);" d="M94.9,45.9c0-0.2-0.2-0.4-0.4-0.4l0,0
					c-0.2,0-0.4,0.2-0.4,0.4l-1.5,31c0,0.1,0,0.2,0.1,0.3l3,4.1c0.1,0.1,0.2,0.2,0.3,0.2c0.1,0,0.1,0,0.1,0c0.2-0.1,0.3-0.2,0.3-0.4
					L94.9,45.9L94.9,45.9z"/>
				
					<linearGradient id="SVGID_00000001628035040137984340000012538488521688757890_" gradientUnits="userSpaceOnUse" x1="102.9053" y1="55.94" x2="102.9053" y2="91.92" gradientTransform="matrix(1 0 0 -1 0 146)">
					<stop  offset="0" style="stop-color:#FFFFFF;stop-opacity:0"/>
					<stop  offset="0.83" style="stop-color:#FFFFFF"/>
				</linearGradient>
				<path style="fill:url(#SVGID_00000001628035040137984340000012538488521688757890_);" d="M103.3,54.5c0-0.2-0.2-0.4-0.4-0.4l0,0
					c-0.2,0-0.4,0.2-0.4,0.4l-1.5,31c0,0.1,0,0.2,0.1,0.3l3,4.1c0.1,0.1,0.2,0.2,0.3,0.2c0.1,0,0.1,0,0.1,0c0.2-0.1,0.3-0.2,0.3-0.4
					L103.3,54.5L103.3,54.5z"/>
			</g>
			<g>
				
					<linearGradient id="SVGID_00000100348697430458213080000018230595446417321402_" gradientUnits="userSpaceOnUse" x1="167.3056" y1="45.01" x2="167.3056" y2="106.64" gradientTransform="matrix(-1 0 0 -1 321.19 146)">
					<stop  offset="0" style="stop-color:#FFFFFF;stop-opacity:0"/>
					<stop  offset="0.83" style="stop-color:#FFFFFF"/>
				</linearGradient>
				<path style="fill:url(#SVGID_00000100348697430458213080000018230595446417321402_);" d="M153.5,39.8c0-0.2,0.2-0.4,0.4-0.4
					s0.4,0.2,0.4,0.4l1.5,60.8c0,0.1,0,0.2-0.1,0.3c-0.1,0.1-0.2,0.1-0.3,0.1h-3c-0.1,0-0.2-0.1-0.3-0.1c-0.1-0.1-0.1-0.2-0.1-0.3
					C152,100.6,153.5,39.8,153.5,39.8z"/>
				
					<linearGradient id="SVGID_00000182515764189660449460000007419398390012434101_" gradientUnits="userSpaceOnUse" x1="175.7657" y1="45.01" x2="175.7657" y2="106.64" gradientTransform="matrix(-1 0 0 -1 321.19 146)">
					<stop  offset="0" style="stop-color:#FFFFFF;stop-opacity:0"/>
					<stop  offset="0.83" style="stop-color:#FFFFFF"/>
				</linearGradient>
				<path style="fill:url(#SVGID_00000182515764189660449460000007419398390012434101_);" d="M145,39.8c0-0.2,0.2-0.4,0.4-0.4
					s0.4,0.2,0.4,0.4l1.5,60.8c0,0.1,0,0.2-0.1,0.3c-0.1,0.1-0.2,0.1-0.3,0.1h-3c-0.1,0-0.2-0.1-0.3-0.1c-0.1-0.1-0.1-0.2-0.1-0.3
					C143.5,100.6,145,39.8,145,39.8z"/>
				
					<linearGradient id="SVGID_00000137824778481471690720000018025604632342577307_" gradientUnits="userSpaceOnUse" x1="171.5344" y1="106.64" x2="171.5344" y2="45.01" gradientTransform="matrix(-1 0 0 -1 321.19 146)">
					<stop  offset="0" style="stop-color:#FFFFFF;stop-opacity:0"/>
					<stop  offset="0.83" style="stop-color:#FFFFFF"/>
				</linearGradient>
				<path style="fill:url(#SVGID_00000137824778481471690720000018025604632342577307_);" d="M147.9,39.5c0.1-0.1,0.2-0.1,0.3-0.1h3
					c0.1,0,0.2,0,0.3,0.1s0.1,0.2,0.1,0.3l-1.5,60.8c0,0.2-0.2,0.4-0.4,0.4s-0.4-0.2-0.4-0.4l-1.5-60.8
					C147.7,39.7,147.8,39.6,147.9,39.5z"/>
				
					<linearGradient id="SVGID_00000039850318406040727940000011576672915887090070_" gradientUnits="userSpaceOnUse" x1="184.2357" y1="45.01" x2="184.2357" y2="106.64" gradientTransform="matrix(-1 0 0 -1 321.19 146)">
					<stop  offset="0" style="stop-color:#FFFFFF;stop-opacity:0"/>
					<stop  offset="0.83" style="stop-color:#FFFFFF"/>
				</linearGradient>
				<path style="fill:url(#SVGID_00000039850318406040727940000011576672915887090070_);" d="M136.5,39.8c0-0.2,0.2-0.4,0.4-0.4
					s0.4,0.2,0.4,0.4l1.5,60.8c0,0.1,0,0.2-0.1,0.3c-0.1,0.1-0.2,0.1-0.3,0.1h-3c-0.1,0-0.2-0.1-0.3-0.1c-0.1-0.1-0.1-0.2-0.1-0.3
					C135,100.6,136.5,39.8,136.5,39.8z"/>
				
					<linearGradient id="SVGID_00000006709825676106446260000017039505935464319139_" gradientUnits="userSpaceOnUse" x1="179.9944" y1="106.64" x2="179.9944" y2="45.01" gradientTransform="matrix(-1 0 0 -1 321.19 146)">
					<stop  offset="0" style="stop-color:#FFFFFF;stop-opacity:0"/>
					<stop  offset="0.83" style="stop-color:#FFFFFF"/>
				</linearGradient>
				<path style="fill:url(#SVGID_00000006709825676106446260000017039505935464319139_);" d="M139.4,39.5c0.1-0.1,0.2-0.1,0.3-0.1h3
					c0.1,0,0.2,0,0.3,0.1s0.1,0.2,0.1,0.3l-1.5,60.8c0,0.2-0.2,0.4-0.4,0.4s-0.4-0.2-0.4-0.4l-1.5-60.8
					C139.3,39.7,139.3,39.6,139.4,39.5z"/>
				
					<linearGradient id="SVGID_00000084527036152711817940000003484809636666711942_" gradientUnits="userSpaceOnUse" x1="188.4647" y1="106.6414" x2="188.4647" y2="45.01" gradientTransform="matrix(-1 0 0 -1 321.19 146)">
					<stop  offset="0" style="stop-color:#FFFFFF;stop-opacity:0"/>
					<stop  offset="0.83" style="stop-color:#FFFFFF"/>
				</linearGradient>
				<path style="fill:url(#SVGID_00000084527036152711817940000003484809636666711942_);" d="M130.9,43.6l3-4.1
					c0.1-0.2,0.3-0.2,0.5-0.2c0.2,0.1,0.3,0.2,0.3,0.4l-1.5,60.8c0,0.2-0.2,0.4-0.4,0.4s-0.4-0.2-0.4-0.4l-1.5-56.7
					C130.8,43.8,130.8,43.7,130.9,43.6L130.9,43.6z"/>
				
					<linearGradient id="SVGID_00000048469245041219328030000012027305658819498115_" gradientUnits="userSpaceOnUse" x1="205.3947" y1="89.5473" x2="205.3947" y2="53.57" gradientTransform="matrix(-1 0 0 -1 321.19 146)">
					<stop  offset="0" style="stop-color:#FFFFFF;stop-opacity:0"/>
					<stop  offset="0.83" style="stop-color:#FFFFFF"/>
				</linearGradient>
				<path style="fill:url(#SVGID_00000048469245041219328030000012027305658819498115_);" d="M114,60.7l3-4.1
					c0.1-0.2,0.3-0.2,0.5-0.2c0.2,0.1,0.3,0.2,0.3,0.4L116.2,92c0,0.2-0.2,0.4-0.4,0.4l0,0c-0.2,0-0.4-0.2-0.4-0.4l-1.5-31
					C113.9,60.9,113.9,60.8,114,60.7z"/>
				
					<linearGradient id="SVGID_00000065045256059547420400000007290762009153718147_" gradientUnits="userSpaceOnUse" x1="196.9347" y1="98.0973" x2="196.9347" y2="62.13" gradientTransform="matrix(-1 0 0 -1 321.19 146)">
					<stop  offset="0" style="stop-color:#FFFFFF;stop-opacity:0"/>
					<stop  offset="0.83" style="stop-color:#FFFFFF"/>
				</linearGradient>
				<path style="fill:url(#SVGID_00000065045256059547420400000007290762009153718147_);" d="M122.4,52.2l3-4.1
					c0.1-0.2,0.3-0.2,0.5-0.2c0.2,0.1,0.3,0.2,0.3,0.4l-1.5,35.1c0,0.2-0.2,0.4-0.4,0.4l0,0c-0.2,0-0.4-0.2-0.4-0.4l-1.5-31
					C122.3,52.3,122.4,52.2,122.4,52.2z"/>
				
					<linearGradient id="SVGID_00000101082700840872382140000010085247896949531534_" gradientUnits="userSpaceOnUse" x1="192.8853" y1="64.49" x2="192.8853" y2="100.47" gradientTransform="matrix(-1 0 0 -1 321.19 146)">
					<stop  offset="0" style="stop-color:#FFFFFF;stop-opacity:0"/>
					<stop  offset="0.83" style="stop-color:#FFFFFF"/>
				</linearGradient>
				<path style="fill:url(#SVGID_00000101082700840872382140000010085247896949531534_);" d="M127.9,45.9c0-0.2,0.2-0.4,0.4-0.4l0,0
					c0.2,0,0.4,0.2,0.4,0.4l1.5,31c0,0.1,0,0.2-0.1,0.3l-3,4.1c-0.1,0.1-0.2,0.2-0.3,0.2c-0.1,0-0.1,0-0.1,0
					c-0.2-0.1-0.3-0.2-0.3-0.4L127.9,45.9L127.9,45.9z"/>
				
					<linearGradient id="SVGID_00000080193058923722055230000009814509770151351207_" gradientUnits="userSpaceOnUse" x1="201.3553" y1="55.94" x2="201.3553" y2="91.92" gradientTransform="matrix(-1 0 0 -1 321.19 146)">
					<stop  offset="0" style="stop-color:#FFFFFF;stop-opacity:0"/>
					<stop  offset="0.83" style="stop-color:#FFFFFF"/>
				</linearGradient>
				<path style="fill:url(#SVGID_00000080193058923722055230000009814509770151351207_);" d="M119.4,54.5c0-0.2,0.2-0.4,0.4-0.4l0,0
					c0.2,0,0.4,0.2,0.4,0.4l1.5,31c0,0.1,0,0.2-0.1,0.3l-3,4.1c-0.1,0.1-0.2,0.2-0.3,0.2c-0.1,0-0.1,0-0.1,0
					c-0.2-0.1-0.3-0.2-0.3-0.4L119.4,54.5L119.4,54.5z"/>
			</g>
		</g>
	</g>
</g>
</svg>
