<?xml version="1.0" encoding="utf-8"?>
<!-- Generator: Adobe Illustrator 27.1.1, SVG Export Plug-In . SVG Version: 6.00 Build 0)  -->
<svg version="1.1" id="Layer_1" xmlns="http://www.w3.org/2000/svg" xmlns:xlink="http://www.w3.org/1999/xlink" x="0px" y="0px"
	 viewBox="0 0 442.1 90" style="enable-background:new 0 0 442.1 90;" xml:space="preserve">
<style type="text/css">
	.st0{fill:#FFFFFF;}
	.st1{fill:url(#SVGID_1_);}
	.st2{fill:url(#SVGID_00000101786177135570776250000008656979221525264284_);}
	.st3{fill:url(#SVGID_00000150781422115715792450000003752838934160318380_);}
	.st4{fill:url(#SVGID_00000028289771474534559860000017125648389979694212_);}
	.st5{fill:url(#SVGID_00000174575005565734785000000006299209524070368148_);}
	.st6{fill:url(#SVGID_00000008107407647462276730000005113861213049043862_);}
	.st7{fill:url(#SVGID_00000054987823509533590050000013299382846704044447_);}
	.st8{fill:url(#SVGID_00000062169799744022684250000011254594536864604308_);}
	.st9{fill:url(#SVGID_00000076569627755099982010000009969465087439509172_);}
	.st10{fill:url(#SVGID_00000116917207505302536400000018385763137691331731_);}
	.st11{fill:url(#SVGID_00000075852637811962488300000007401573445457256594_);}
	.st12{fill:url(#SVGID_00000132792127163449165180000016702732429259440028_);}
	.st13{fill:url(#SVGID_00000017480898624169921710000009728234662927303818_);}
	.st14{fill:url(#SVGID_00000130615482441457200760000011096002160788774272_);}
	.st15{fill:url(#SVGID_00000081641786162906466500000001829457885827751065_);}
	.st16{fill:url(#SVGID_00000125566305404815724220000002800982574876652455_);}
	.st17{fill:url(#SVGID_00000172440709950618648840000000851939043713586593_);}
	.st18{fill:url(#SVGID_00000103983236063299911090000010450192824450108560_);}
	.st19{fill:url(#SVGID_00000093883045110079991700000015108358070546148237_);}
	.st20{fill:url(#SVGID_00000094610851803956285420000005192562933441708715_);}
	.st21{fill:url(#SVGID_00000050641420532398460410000017455228922869504653_);}
</style>
<g>
	<g>
		<g>
			<path class="st0" d="M177.1,20.7c1.9,1,3.3,2.4,4.4,4.3s1.6,4.2,1.6,7v17.7H177V33c0-2.7-0.7-4.7-2-6.2s-3.1-2.2-5.5-2.2
				s-4.1,0.7-5.5,2.2c-1.4,1.4-2,3.5-2,6.2v16.7h-6.1V33c0-2.7-0.7-4.7-2-6.2s-3.1-2.2-5.5-2.2s-4.1,0.7-5.5,2.2
				c-1.4,1.4-2,3.5-2,6.2v16.7h-6.2V19.8h6.2v3.4c1-1.2,2.3-2.2,3.8-2.9c1.6-0.7,3.2-1,5-1c2.4,0,4.5,0.5,6.4,1.5s3.3,2.5,4.3,4.4
				c0.9-1.8,2.3-3.2,4.2-4.3s4-1.6,6.2-1.6C173.1,19.3,175.2,19.8,177.1,20.7L177.1,20.7z"/>
			<path class="st0" d="M195,48.2c-2.3-1.3-4-3.1-5.4-5.4c-1.3-2.3-1.9-5-1.9-8.1s0.7-5.7,2-8.1c1.3-2.3,3.1-4.2,5.5-5.4
				s4.9-1.9,7.7-1.9s5.4,0.6,7.7,1.9s4.1,3.1,5.5,5.4s2,5,2,8.1c0,3-0.7,5.7-2,8.1s-3.2,4.2-5.6,5.5s-5,1.9-7.8,1.9
				S197.3,49.5,195,48.2L195,48.2z M207.1,43.7c1.4-0.8,2.5-1.9,3.4-3.4s1.3-3.4,1.3-5.5s-0.4-4-1.2-5.5s-1.9-2.6-3.3-3.4
				s-2.9-1.1-4.4-1.1s-3,0.4-4.4,1.1s-2.4,1.9-3.2,3.4c-0.8,1.5-1.2,3.3-1.2,5.5c0,3.2,0.8,5.7,2.5,7.5c1.6,1.8,3.7,2.6,6.2,2.6
				C204.3,44.8,205.8,44.4,207.1,43.7L207.1,43.7z"/>
			<path class="st0" d="M265.1,20.7c1.9,1,3.3,2.4,4.4,4.3c1.1,1.9,1.6,4.2,1.6,7v17.7H265V33c0-2.7-0.7-4.7-2-6.2s-3.1-2.2-5.5-2.2
				s-4.1,0.7-5.5,2.2c-1.4,1.4-2,3.5-2,6.2v16.7h-6.1V33c0-2.7-0.7-4.7-2-6.2s-3.1-2.2-5.5-2.2s-4.1,0.7-5.5,2.2
				c-1.4,1.4-2,3.5-2,6.2v16.7h-6.2V19.8h6.2v3.4c1-1.2,2.3-2.2,3.8-2.9s3.2-1,5-1c2.4,0,4.5,0.5,6.4,1.5s3.3,2.5,4.3,4.4
				c0.9-1.8,2.3-3.2,4.2-4.3s4-1.6,6.2-1.6C261.1,19.3,263.2,19.8,265.1,20.7L265.1,20.7z"/>
			<path class="st0" d="M304.6,37h-22.8c0.2,2.4,1.1,4.3,2.6,5.8c1.6,1.4,3.5,2.2,5.8,2.2c3.3,0,5.7-1.4,7-4.2h6.6
				c-0.9,2.8-2.5,5-4.9,6.8s-5.3,2.6-8.8,2.6c-2.9,0-5.4-0.6-7.6-1.9s-4-3.1-5.3-5.4s-1.9-5-1.9-8.1s0.6-5.8,1.9-8.1s3-4.1,5.2-5.4
				c2.2-1.3,4.8-1.9,7.8-1.9s5.3,0.6,7.5,1.8s3.9,3,5.1,5.2s1.8,4.8,1.8,7.7C304.8,35.1,304.8,36.1,304.6,37L304.6,37z M298.4,32
				c0-2.3-0.9-4.1-2.4-5.5c-1.6-1.4-3.5-2.1-5.9-2.1c-2.1,0-4,0.7-5.5,2c-1.5,1.4-2.4,3.2-2.7,5.5L298.4,32L298.4,32z"/>
			<path class="st0" d="M330.9,20.7c1.9,1,3.3,2.4,4.4,4.3c1,1.9,1.6,4.2,1.6,7v17.7h-6.1V33c0-2.7-0.7-4.7-2-6.2s-3.1-2.2-5.5-2.2
				s-4.1,0.7-5.5,2.2c-1.4,1.4-2,3.5-2,6.2v16.7h-6.2V19.8h6.2v3.4c1-1.2,2.3-2.2,3.9-2.9s3.2-1,5-1C326.9,19.3,329,19.8,330.9,20.7
				L330.9,20.7z"/>
			<path class="st0" d="M350.1,24.8v16.6c0,1.1,0.3,1.9,0.8,2.4s1.4,0.7,2.7,0.7h3.8v5.2h-4.9c-2.8,0-4.9-0.7-6.4-2
				s-2.2-3.4-2.2-6.3V24.8h-3.5v-5h3.5v-7.4h6.2v7.4h7.2v5C357.3,24.8,350.1,24.8,350.1,24.8z"/>
			<path class="st0" d="M388.9,19.8v29.9h-6.2v-3.5c-1,1.2-2.2,2.2-3.8,2.9c-1.6,0.7-3.2,1.1-5,1.1c-2.3,0-4.4-0.5-6.3-1.5
				s-3.3-2.4-4.4-4.3s-1.6-4.2-1.6-6.9V19.8h6.1v16.7c0,2.7,0.7,4.7,2,6.2s3.1,2.2,5.5,2.2s4.1-0.7,5.5-2.2c1.4-1.4,2-3.5,2-6.2
				V19.8H388.9L388.9,19.8z"/>
			<path class="st0" d="M436.1,20.7c1.9,1,3.3,2.4,4.4,4.3c1.1,1.9,1.6,4.2,1.6,7v17.7H436V33c0-2.7-0.7-4.7-2-6.2s-3.1-2.2-5.5-2.2
				s-4.1,0.7-5.5,2.2c-1.4,1.4-2,3.5-2,6.2v16.7h-6.1V33c0-2.7-0.7-4.7-2-6.2s-3.1-2.2-5.5-2.2s-4.1,0.7-5.5,2.2
				c-1.4,1.4-2,3.5-2,6.2v16.7h-6.2V19.8h6.2v3.4c1-1.2,2.3-2.2,3.8-2.9s3.2-1,5-1c2.4,0,4.5,0.5,6.4,1.5s3.3,2.5,4.3,4.4
				c0.9-1.8,2.3-3.2,4.2-4.3s4-1.6,6.2-1.6C432.1,19.3,434.2,19.8,436.1,20.7L436.1,20.7z"/>
		</g>
		<g>
			<path class="st0" d="M145.2,67.7c0.5,0.7,0.8,1.5,0.8,2.3s-0.2,1.5-0.6,2.1s-0.9,1.1-1.7,1.4c-0.7,0.3-1.6,0.5-2.6,0.5h-6.4V59.2
				h6.1c1,0,1.9,0.2,2.6,0.5c0.7,0.3,1.3,0.8,1.6,1.4s0.6,1.2,0.6,2c0,0.9-0.2,1.6-0.7,2.2s-1.1,1-1.8,1.2
				C144,66.6,144.7,67,145.2,67.7L145.2,67.7z M137.7,65.3h2.7c0.7,0,1.2-0.2,1.6-0.5s0.6-0.8,0.6-1.4s-0.2-1.1-0.6-1.4
				c-0.4-0.3-0.9-0.5-1.6-0.5h-2.7V65.3z M142.4,71.1c0.4-0.3,0.6-0.8,0.6-1.4s-0.2-1.1-0.6-1.5s-1-0.5-1.7-0.5h-2.9v4h3
				C141.4,71.6,142,71.4,142.4,71.1L142.4,71.1z"/>
			<path class="st0" d="M153.5,59.2V74h-3V59.2H153.5z"/>
			<path class="st0" d="M161.5,73.2c-1.2-0.7-2.1-1.6-2.8-2.7c-0.7-1.2-1-2.5-1-3.9s0.3-2.8,1-3.9c0.7-1.2,1.6-2.1,2.8-2.7
				s2.4-1,3.8-1s2.7,0.3,3.8,1s2.1,1.6,2.7,2.7c0.7,1.2,1,2.5,1,3.9s-0.3,2.8-1,3.9c-0.7,1.2-1.6,2.1-2.7,2.7s-2.4,1-3.8,1
				S162.7,73.8,161.5,73.2z M167.7,70.9c0.7-0.4,1.2-1,1.6-1.7c0.4-0.8,0.6-1.6,0.6-2.6s-0.2-1.9-0.6-2.6s-0.9-1.3-1.6-1.7
				s-1.5-0.6-2.4-0.6s-1.7,0.2-2.4,0.6s-1.2,1-1.6,1.7s-0.6,1.6-0.6,2.6s0.2,1.9,0.6,2.6c0.4,0.8,0.9,1.3,1.6,1.7
				c0.7,0.4,1.5,0.6,2.4,0.6S167,71.3,167.7,70.9z"/>
			<path class="st0" d="M187.3,59.2v2.4h-3.9V74h-3V61.6h-3.9v-2.4H187.3L187.3,59.2z"/>
			<path class="st0" d="M194.5,61.6v3.7h5v2.4h-5v3.9h5.6V74h-8.6V59.1h8.6v2.4L194.5,61.6L194.5,61.6z"/>
			<path class="st0" d="M205.2,62.6c0.7-1.2,1.5-2.1,2.7-2.7s2.4-1,3.8-1c1.6,0,3.1,0.4,4.3,1.3s2.1,2,2.6,3.5h-3.4
				c-0.3-0.7-0.8-1.2-1.4-1.6c-0.6-0.3-1.3-0.5-2.1-0.5c-0.9,0-1.6,0.2-2.3,0.6c-0.7,0.4-1.2,1-1.6,1.7s-0.6,1.6-0.6,2.6
				s0.2,1.8,0.6,2.6c0.4,0.7,0.9,1.3,1.6,1.7s1.4,0.6,2.3,0.6c0.8,0,1.5-0.2,2.1-0.5c0.6-0.4,1.1-0.9,1.4-1.6h3.4
				c-0.5,1.5-1.4,2.7-2.6,3.5s-2.7,1.3-4.4,1.3c-1.4,0-2.7-0.3-3.8-1s-2-1.5-2.7-2.7s-1-2.4-1-3.9S204.5,63.8,205.2,62.6L205.2,62.6
				z"/>
			<path class="st0" d="M235.5,59.2V74h-3v-6.3h-6.3V74h-3V59.2h3v6.1h6.3v-6.1H235.5z"/>
			<path class="st0" d="M253.2,74h-3l-6.7-10.2V74h-3V59.1h3l6.7,10.2V59.1h3V74z"/>
			<path class="st0" d="M261.3,73.2c-1.2-0.7-2.1-1.6-2.8-2.7c-0.7-1.2-1-2.5-1-3.9s0.3-2.8,1-3.9c0.7-1.2,1.6-2.1,2.8-2.7
				s2.4-1,3.8-1s2.7,0.3,3.8,1s2.1,1.6,2.7,2.7c0.7,1.2,1,2.5,1,3.9s-0.3,2.8-1,3.9c-0.7,1.2-1.6,2.1-2.7,2.7s-2.4,1-3.8,1
				S262.5,73.8,261.3,73.2L261.3,73.2z M267.5,70.9c0.7-0.4,1.2-1,1.6-1.7s0.6-1.6,0.6-2.6s-0.2-1.9-0.6-2.6s-0.9-1.3-1.6-1.7
				s-1.5-0.6-2.4-0.6s-1.7,0.2-2.4,0.6s-1.2,1-1.6,1.7s-0.6,1.6-0.6,2.6s0.2,1.9,0.6,2.6c0.4,0.8,0.9,1.3,1.6,1.7
				c0.7,0.4,1.5,0.6,2.4,0.6S266.8,71.3,267.5,70.9z"/>
			<path class="st0" d="M279.9,71.6h4.9V74H277V59.2h3v12.4H279.9z"/>
			<path class="st0" d="M291.8,73.2c-1.2-0.7-2.1-1.6-2.8-2.7c-0.7-1.2-1-2.5-1-3.9s0.3-2.8,1-3.9c0.7-1.2,1.6-2.1,2.8-2.7
				s2.4-1,3.8-1s2.7,0.3,3.8,1s2.1,1.6,2.7,2.7c0.7,1.2,1,2.5,1,3.9s-0.3,2.8-1,3.9c-0.7,1.2-1.6,2.1-2.7,2.7s-2.4,1-3.8,1
				S293,73.8,291.8,73.2L291.8,73.2z M298,70.9c0.7-0.4,1.2-1,1.6-1.7s0.6-1.6,0.6-2.6s-0.2-1.9-0.6-2.6s-0.9-1.3-1.6-1.7
				s-1.5-0.6-2.4-0.6s-1.7,0.2-2.4,0.6s-1.2,1-1.6,1.7s-0.6,1.6-0.6,2.6s0.2,1.9,0.6,2.6c0.4,0.8,0.9,1.3,1.6,1.7
				c0.7,0.4,1.5,0.6,2.4,0.6S297.3,71.3,298,70.9z"/>
			<path class="st0" d="M317.8,63.6c-0.3-0.6-0.8-1.1-1.4-1.4s-1.3-0.5-2.1-0.5c-0.9,0-1.6,0.2-2.3,0.6s-1.2,1-1.6,1.7
				s-0.6,1.6-0.6,2.6s0.2,1.9,0.6,2.6s0.9,1.3,1.6,1.7s1.5,0.6,2.4,0.6c1.1,0,2-0.3,2.8-0.9s1.2-1.4,1.4-2.5h-5.1v-2.3h8v2.6
				c-0.2,1-0.6,2-1.3,2.9c-0.6,0.9-1.5,1.6-2.5,2.1s-2.2,0.8-3.4,0.8c-1.4,0-2.7-0.3-3.9-1s-2-1.5-2.7-2.7s-1-2.4-1-3.9
				s0.3-2.8,1-3.9c0.7-1.2,1.6-2.1,2.7-2.7s2.4-1,3.8-1c1.7,0,3.1,0.4,4.3,1.2c1.2,0.8,2.1,2,2.5,3.4L317.8,63.6L317.8,63.6z"/>
			<path class="st0" d="M328.9,59.2V74h-3V59.2H328.9z"/>
			<path class="st0" d="M336.9,61.6v3.7h5v2.4h-5v3.9h5.6V74h-8.6V59.1h8.6v2.4L336.9,61.6L336.9,61.6z"/>
			<path class="st0" d="M349.6,73.6c-0.8-0.3-1.5-0.9-2-1.5c-0.5-0.7-0.7-1.4-0.7-2.4h3.2c0,0.6,0.3,1.1,0.6,1.4
				c0.4,0.3,0.9,0.5,1.6,0.5s1.2-0.2,1.6-0.5s0.6-0.8,0.6-1.3c0-0.4-0.1-0.8-0.4-1.1s-0.6-0.5-1-0.7s-1-0.3-1.7-0.5
				c-1-0.3-1.7-0.6-2.3-0.8s-1.1-0.7-1.5-1.2c-0.4-0.6-0.6-1.3-0.6-2.2c0-0.9,0.2-1.6,0.7-2.3c0.4-0.7,1-1.2,1.8-1.5
				s1.7-0.5,2.7-0.5c1.5,0,2.8,0.4,3.7,1.1s1.5,1.8,1.6,3.1h-3.3c0-0.5-0.2-0.9-0.6-1.3c-0.4-0.3-0.9-0.5-1.6-0.5
				c-0.6,0-1,0.2-1.4,0.4c-0.4,0.3-0.5,0.7-0.5,1.3c0,0.4,0.1,0.7,0.4,1s0.6,0.5,1,0.6c0.4,0.2,0.9,0.3,1.6,0.6
				c1,0.3,1.7,0.6,2.4,0.8s1.1,0.7,1.6,1.3s0.7,1.3,0.7,2.2c0,0.8-0.2,1.5-0.6,2.2s-1,1.2-1.8,1.6s-1.7,0.6-2.8,0.6
				C351.3,74.2,350.4,74,349.6,73.6L349.6,73.6z"/>
		</g>
	</g>
	<g>
		<path class="st0" d="M112,90c-0.2,0-0.3-0.1-0.3-0.3V0.3c0-0.2,0.1-0.3,0.3-0.3s0.3,0.1,0.3,0.3v89.4C112.3,89.9,112.1,90,112,90z
			"/>
		<g>
			<g>
				
					<linearGradient id="SVGID_1_" gradientUnits="userSpaceOnUse" x1="1.9" y1="696" x2="1.9" y2="634.4" gradientTransform="matrix(1 0 0 1 0 -622)">
					<stop  offset="0" style="stop-color:#FFFFFF;stop-opacity:0"/>
					<stop  offset="0.83" style="stop-color:#FFFFFF"/>
				</linearGradient>
				<path class="st1" d="M2.3,12.8c0-0.2-0.2-0.4-0.4-0.4s-0.4,0.2-0.4,0.4L0,73.6c0,0.1,0,0.2,0.1,0.3C0.2,74,0.3,74,0.4,74h3
					c0.1,0,0.2-0.1,0.3-0.1c0.1-0.1,0.1-0.2,0.1-0.3L2.3,12.8z"/>
				
					<linearGradient id="SVGID_00000023963452096503044540000000071754302590519168_" gradientUnits="userSpaceOnUse" x1="10.4" y1="696" x2="10.4" y2="634.4" gradientTransform="matrix(1 0 0 1 0 -622)">
					<stop  offset="0" style="stop-color:#FFFFFF;stop-opacity:0"/>
					<stop  offset="0.83" style="stop-color:#FFFFFF"/>
				</linearGradient>
				<path style="fill:url(#SVGID_00000023963452096503044540000000071754302590519168_);" d="M10.8,12.8c0-0.2-0.2-0.4-0.4-0.4
					S10,12.6,10,12.8L8.5,73.6c0,0.1,0,0.2,0.1,0.3C8.7,74,8.8,74,8.9,74h3c0.1,0,0.2-0.1,0.3-0.1c0.1-0.1,0.1-0.2,0.1-0.3
					C12.2,73.6,10.8,12.8,10.8,12.8z"/>
				
					<linearGradient id="SVGID_00000107546176265800180710000012915079439490747541_" gradientUnits="userSpaceOnUse" x1="6.1" y1="634.4" x2="6.1" y2="696" gradientTransform="matrix(1 0 0 1 0 -622)">
					<stop  offset="0" style="stop-color:#FFFFFF;stop-opacity:0"/>
					<stop  offset="0.83" style="stop-color:#FFFFFF"/>
				</linearGradient>
				<path style="fill:url(#SVGID_00000107546176265800180710000012915079439490747541_);" d="M7.9,12.5c-0.1-0.1-0.2-0.1-0.3-0.1h-3
					c-0.1,0-0.2,0-0.3,0.1c-0.1,0.1-0.1,0.2-0.1,0.3l1.5,60.8c0,0.2,0.2,0.4,0.4,0.4s0.4-0.2,0.4-0.4L8,12.8C8,12.7,8,12.6,7.9,12.5
					z"/>
				
					<linearGradient id="SVGID_00000000211584665525030290000006762762280286600117_" gradientUnits="userSpaceOnUse" x1="18.8" y1="696" x2="18.8" y2="634.4" gradientTransform="matrix(1 0 0 1 0 -622)">
					<stop  offset="0" style="stop-color:#FFFFFF;stop-opacity:0"/>
					<stop  offset="0.83" style="stop-color:#FFFFFF"/>
				</linearGradient>
				<path style="fill:url(#SVGID_00000000211584665525030290000006762762280286600117_);" d="M19.2,12.8c0-0.2-0.2-0.4-0.4-0.4
					s-0.4,0.2-0.4,0.4l-1.5,60.8c0,0.1,0,0.2,0.1,0.3c0.1,0.1,0.2,0.1,0.3,0.1h3c0.1,0,0.2-0.1,0.3-0.1c0.1-0.1,0.1-0.2,0.1-0.3
					L19.2,12.8z"/>
				
					<linearGradient id="SVGID_00000093159383896876643480000006199880963307388583_" gradientUnits="userSpaceOnUse" x1="44.4" y1="689.52" x2="44.4" y2="657.63" gradientTransform="matrix(1 0 0 1 0 -622)">
					<stop  offset="0" style="stop-color:#FFFFFF;stop-opacity:0"/>
					<stop  offset="0.83" style="stop-color:#FFFFFF"/>
				</linearGradient>
				<path style="fill:url(#SVGID_00000093159383896876643480000006199880963307388583_);" d="M44.8,36c0-0.2-0.2-0.4-0.4-0.4
					S44,35.8,44,36l-1.5,31c0,0.1,0,0.2,0.1,0.3c0.1,0.1,0.2,0.1,0.3,0.1h3c0.1,0,0.2-0.1,0.3-0.1c0.1-0.1,0.1-0.2,0.1-0.3L44.8,36z
					"/>
				
					<linearGradient id="SVGID_00000047057872396537875610000007430046067740001976_" gradientUnits="userSpaceOnUse" x1="14.6" y1="634.4" x2="14.6" y2="696" gradientTransform="matrix(1 0 0 1 0 -622)">
					<stop  offset="0" style="stop-color:#FFFFFF;stop-opacity:0"/>
					<stop  offset="0.83" style="stop-color:#FFFFFF"/>
				</linearGradient>
				<path style="fill:url(#SVGID_00000047057872396537875610000007430046067740001976_);" d="M16.4,12.5c-0.1-0.1-0.2-0.1-0.3-0.1
					h-3c-0.1,0-0.2,0-0.3,0.1c-0.1,0.1-0.1,0.2-0.1,0.3l1.5,60.8c0,0.2,0.2,0.4,0.4,0.4s0.4-0.2,0.4-0.4l1.5-60.8
					C16.5,12.7,16.5,12.6,16.4,12.5z"/>
				
					<linearGradient id="SVGID_00000052783853047983049450000015101295162780678031_" gradientUnits="userSpaceOnUse" x1="23.05" y1="634.3" x2="23.05" y2="695.9" gradientTransform="matrix(1 0 0 1 0 -622)">
					<stop  offset="0" style="stop-color:#FFFFFF;stop-opacity:0"/>
					<stop  offset="0.83" style="stop-color:#FFFFFF"/>
				</linearGradient>
				<path style="fill:url(#SVGID_00000052783853047983049450000015101295162780678031_);" d="M24.9,16.6l-3-4.1
					c-0.1-0.2-0.3-0.2-0.5-0.2s-0.3,0.2-0.3,0.4l1.5,60.8c0,0.2,0.2,0.4,0.4,0.4s0.4-0.2,0.4-0.4L25,16.9
					C25,16.8,24.9,16.7,24.9,16.6z"/>
				
					<linearGradient id="SVGID_00000148649402698245871450000004604189777337101234_" gradientUnits="userSpaceOnUse" x1="39.9375" y1="651.4527" x2="39.9375" y2="687.43" gradientTransform="matrix(1 0 0 1 0 -622)">
					<stop  offset="0" style="stop-color:#FFFFFF;stop-opacity:0"/>
					<stop  offset="0.83" style="stop-color:#FFFFFF"/>
				</linearGradient>
				<path style="fill:url(#SVGID_00000148649402698245871450000004604189777337101234_);" d="M41.8,33.7l-3-4.1
					c-0.1-0.2-0.3-0.2-0.5-0.2c-0.2,0.1-0.3,0.2-0.3,0.4l1.5,35.1c0,0.2,0.2,0.4,0.4,0.4l0,0c0.2,0,0.4-0.2,0.4-0.4l1.5-31
					C41.9,33.9,41.9,33.8,41.8,33.7z"/>
				
					<linearGradient id="SVGID_00000135685547709736752880000007357840675706388379_" gradientUnits="userSpaceOnUse" x1="31.5" y1="642.9" x2="31.5" y2="678.8673" gradientTransform="matrix(1 0 0 1 0 -622)">
					<stop  offset="0" style="stop-color:#FFFFFF;stop-opacity:0"/>
					<stop  offset="0.83" style="stop-color:#FFFFFF"/>
				</linearGradient>
				<path style="fill:url(#SVGID_00000135685547709736752880000007357840675706388379_);" d="M33.4,25.2l-3-4.1
					c-0.1-0.2-0.3-0.2-0.5-0.2c-0.2,0.1-0.3,0.2-0.3,0.4l1.5,35.1c0,0.2,0.2,0.4,0.4,0.4l0,0c0.2,0,0.4-0.2,0.4-0.4l1.5-31
					C33.4,25.3,33.4,25.2,33.4,25.2z"/>
				
					<linearGradient id="SVGID_00000088106362866512491250000010722396972610269331_" gradientUnits="userSpaceOnUse" x1="27.5" y1="676.5" x2="27.5" y2="640.5" gradientTransform="matrix(1 0 0 1 0 -622)">
					<stop  offset="0" style="stop-color:#FFFFFF;stop-opacity:0"/>
					<stop  offset="0.83" style="stop-color:#FFFFFF"/>
				</linearGradient>
				<path style="fill:url(#SVGID_00000088106362866512491250000010722396972610269331_);" d="M27.9,18.9c0-0.2-0.2-0.4-0.4-0.4l0,0
					c-0.2,0-0.4,0.2-0.4,0.4l-1.5,31c0,0.1,0,0.2,0.1,0.3l3,4.1c0.1,0.1,0.2,0.2,0.3,0.2c0.1,0,0.1,0,0.1,0c0.2-0.1,0.3-0.2,0.3-0.4
					L27.9,18.9L27.9,18.9z"/>
				
					<linearGradient id="SVGID_00000094579375041410337190000015241414326476660357_" gradientUnits="userSpaceOnUse" x1="35.9" y1="685.06" x2="35.9" y2="649.06" gradientTransform="matrix(1 0 0 1 0 -622)">
					<stop  offset="0" style="stop-color:#FFFFFF;stop-opacity:0"/>
					<stop  offset="0.83" style="stop-color:#FFFFFF"/>
				</linearGradient>
				<path style="fill:url(#SVGID_00000094579375041410337190000015241414326476660357_);" d="M36.3,27.5c0-0.2-0.2-0.4-0.4-0.4l0,0
					c-0.2,0-0.4,0.2-0.4,0.4l-1.5,31c0,0.1,0,0.2,0.1,0.3l3,4.1c0.1,0.1,0.2,0.2,0.3,0.2c0.1,0,0.1,0,0.1,0c0.2-0.1,0.3-0.2,0.3-0.4
					L36.3,27.5L36.3,27.5z"/>
			</g>
			<g>
				
					<linearGradient id="SVGID_00000101075735349681437490000010895779717065787520_" gradientUnits="userSpaceOnUse" x1="-687.71" y1="696" x2="-687.71" y2="634.4" gradientTransform="matrix(-1 0 0 1 -600.81 -622)">
					<stop  offset="0" style="stop-color:#FFFFFF;stop-opacity:0"/>
					<stop  offset="0.83" style="stop-color:#FFFFFF"/>
				</linearGradient>
				<path style="fill:url(#SVGID_00000101075735349681437490000010895779717065787520_);" d="M86.5,12.8c0-0.2,0.2-0.4,0.4-0.4
					s0.4,0.2,0.4,0.4l1.5,60.8c0,0.1,0,0.2-0.1,0.3C88.6,74,88.5,74,88.4,74h-3c-0.1,0-0.2-0.1-0.3-0.1C85,73.8,85,73.7,85,73.6
					C85,73.6,86.5,12.8,86.5,12.8z"/>
				
					<linearGradient id="SVGID_00000042722046098599946460000006081638587845045148_" gradientUnits="userSpaceOnUse" x1="-679.21" y1="696" x2="-679.21" y2="634.4" gradientTransform="matrix(-1 0 0 1 -600.81 -622)">
					<stop  offset="0" style="stop-color:#FFFFFF;stop-opacity:0"/>
					<stop  offset="0.83" style="stop-color:#FFFFFF"/>
				</linearGradient>
				<path style="fill:url(#SVGID_00000042722046098599946460000006081638587845045148_);" d="M78,12.8c0-0.2,0.2-0.4,0.4-0.4
					s0.4,0.2,0.4,0.4l1.5,60.8c0,0.1,0,0.2-0.1,0.3C80.1,74,80,74,79.9,74h-3c-0.1,0-0.2-0.1-0.3-0.1c-0.1-0.1-0.1-0.2-0.1-0.3
					C76.5,73.6,78,12.8,78,12.8z"/>
				
					<linearGradient id="SVGID_00000111890138480773945260000007094073338244072613_" gradientUnits="userSpaceOnUse" x1="-683.4893" y1="634.4" x2="-683.4893" y2="696" gradientTransform="matrix(-1 0 0 1 -600.81 -622)">
					<stop  offset="0" style="stop-color:#FFFFFF;stop-opacity:0"/>
					<stop  offset="0.83" style="stop-color:#FFFFFF"/>
				</linearGradient>
				<path style="fill:url(#SVGID_00000111890138480773945260000007094073338244072613_);" d="M80.9,12.5c0.1-0.1,0.2-0.1,0.3-0.1h3
					c0.1,0,0.2,0,0.3,0.1s0.1,0.2,0.1,0.3l-1.5,60.8c0,0.2-0.2,0.4-0.4,0.4s-0.4-0.2-0.4-0.4l-1.5-60.8
					C80.7,12.7,80.8,12.6,80.9,12.5z"/>
				
					<linearGradient id="SVGID_00000150064056567918914690000009588905662399222403_" gradientUnits="userSpaceOnUse" x1="-670.71" y1="696" x2="-670.71" y2="634.4" gradientTransform="matrix(-1 0 0 1 -600.81 -622)">
					<stop  offset="0" style="stop-color:#FFFFFF;stop-opacity:0"/>
					<stop  offset="0.83" style="stop-color:#FFFFFF"/>
				</linearGradient>
				<path style="fill:url(#SVGID_00000150064056567918914690000009588905662399222403_);" d="M69.5,12.8c0-0.2,0.2-0.4,0.4-0.4
					s0.4,0.2,0.4,0.4l1.5,60.8c0,0.1,0,0.2-0.1,0.3C71.6,74,71.5,74,71.4,74h-3c-0.1,0-0.2-0.1-0.3-0.1C68,73.8,68,73.7,68,73.6
					C68,73.6,69.5,12.8,69.5,12.8z"/>
				
					<linearGradient id="SVGID_00000024699892801891102120000010789049952039216287_" gradientUnits="userSpaceOnUse" x1="-675.01" y1="634.4" x2="-675.01" y2="696" gradientTransform="matrix(-1 0 0 1 -600.81 -622)">
					<stop  offset="0" style="stop-color:#FFFFFF;stop-opacity:0"/>
					<stop  offset="0.83" style="stop-color:#FFFFFF"/>
				</linearGradient>
				<path style="fill:url(#SVGID_00000024699892801891102120000010789049952039216287_);" d="M72.4,12.5c0.1-0.1,0.2-0.1,0.3-0.1h3
					c0.1,0,0.2,0,0.3,0.1s0.1,0.2,0.1,0.3l-1.5,60.8c0,0.2-0.2,0.4-0.4,0.4s-0.4-0.2-0.4-0.4l-1.5-60.8
					C72.3,12.7,72.3,12.6,72.4,12.5z"/>
				
					<linearGradient id="SVGID_00000011022209806564715690000017175112200864125069_" gradientUnits="userSpaceOnUse" x1="-666.5725" y1="634.3" x2="-666.5725" y2="695.9" gradientTransform="matrix(-1 0 0 1 -600.81 -622)">
					<stop  offset="0" style="stop-color:#FFFFFF;stop-opacity:0"/>
					<stop  offset="0.83" style="stop-color:#FFFFFF"/>
				</linearGradient>
				<path style="fill:url(#SVGID_00000011022209806564715690000017175112200864125069_);" d="M63.9,16.6l3-4.1
					c0.1-0.2,0.3-0.2,0.5-0.2c0.2,0.1,0.3,0.2,0.3,0.4l-1.5,60.8c0,0.2-0.2,0.4-0.4,0.4s-0.4-0.2-0.4-0.4l-1.5-56.7
					C63.8,16.8,63.8,16.7,63.9,16.6L63.9,16.6z"/>
				
					<linearGradient id="SVGID_00000111880479093553925310000016831687323438253998_" gradientUnits="userSpaceOnUse" x1="-649.66" y1="651.4527" x2="-649.66" y2="687.4527" gradientTransform="matrix(-1 0 0 1 -600.81 -622)">
					<stop  offset="0" style="stop-color:#FFFFFF;stop-opacity:0"/>
					<stop  offset="0.83" style="stop-color:#FFFFFF"/>
				</linearGradient>
				<path style="fill:url(#SVGID_00000111880479093553925310000016831687323438253998_);" d="M47,33.7l3-4.1
					c0.1-0.2,0.3-0.2,0.5-0.2c0.2,0.1,0.3,0.2,0.3,0.4L49.2,65c0,0.2-0.2,0.4-0.4,0.4l0,0c-0.2,0-0.4-0.2-0.4-0.4l-1.5-31
					C46.9,33.9,46.9,33.8,47,33.7z"/>
				
					<linearGradient id="SVGID_00000016055492258489720880000005229496897978497696_" gradientUnits="userSpaceOnUse" x1="-658.0878" y1="642.9" x2="-658.0878" y2="678.8673" gradientTransform="matrix(-1 0 0 1 -600.81 -622)">
					<stop  offset="0" style="stop-color:#FFFFFF;stop-opacity:0"/>
					<stop  offset="0.83" style="stop-color:#FFFFFF"/>
				</linearGradient>
				<path style="fill:url(#SVGID_00000016055492258489720880000005229496897978497696_);" d="M55.4,25.2l3-4.1
					c0.1-0.2,0.3-0.2,0.5-0.2c0.2,0.1,0.3,0.2,0.3,0.4l-1.5,35.1c0,0.2-0.2,0.4-0.4,0.4l0,0c-0.2,0-0.4-0.2-0.4-0.4l-1.5-31
					C55.3,25.3,55.4,25.2,55.4,25.2z"/>
				
					<linearGradient id="SVGID_00000039856577974880232640000004169747138625432970_" gradientUnits="userSpaceOnUse" x1="-662.11" y1="676.5" x2="-662.11" y2="640.5" gradientTransform="matrix(-1 0 0 1 -600.81 -622)">
					<stop  offset="0" style="stop-color:#FFFFFF;stop-opacity:0"/>
					<stop  offset="0.83" style="stop-color:#FFFFFF"/>
				</linearGradient>
				<path style="fill:url(#SVGID_00000039856577974880232640000004169747138625432970_);" d="M60.9,18.9c0-0.2,0.2-0.4,0.4-0.4l0,0
					c0.2,0,0.4,0.2,0.4,0.4l1.5,31c0,0.1,0,0.2-0.1,0.3l-3,4.1c-0.1,0.1-0.2,0.2-0.3,0.2c-0.1,0-0.1,0-0.1,0
					c-0.2-0.1-0.3-0.2-0.3-0.4L60.9,18.9L60.9,18.9z"/>
				
					<linearGradient id="SVGID_00000110462689257743100840000016180607620478561204_" gradientUnits="userSpaceOnUse" x1="-653.61" y1="685.06" x2="-653.61" y2="649.06" gradientTransform="matrix(-1 0 0 1 -600.81 -622)">
					<stop  offset="0" style="stop-color:#FFFFFF;stop-opacity:0"/>
					<stop  offset="0.83" style="stop-color:#FFFFFF"/>
				</linearGradient>
				<path style="fill:url(#SVGID_00000110462689257743100840000016180607620478561204_);" d="M52.4,27.5c0-0.2,0.2-0.4,0.4-0.4l0,0
					c0.2,0,0.4,0.2,0.4,0.4l1.5,31c0,0.1,0,0.2-0.1,0.3l-3,4.1c-0.1,0.1-0.2,0.2-0.3,0.2c-0.1,0-0.1,0-0.1,0
					c-0.2-0.1-0.3-0.2-0.3-0.4L52.4,27.5L52.4,27.5z"/>
			</g>
		</g>
	</g>
</g>
</svg>
